<?xml version="1.0" standalone="no"?>
<!DOCTYPE svg PUBLIC "-//W3C//DTD SVG 20010904//EN"
 "http://www.w3.org/TR/2001/REC-SVG-20010904/DTD/svg10.dtd">
<svg version="1.0" xmlns="http://www.w3.org/2000/svg"
 width="240.000000pt" height="240.000000pt" viewBox="0 0 240.000000 240.000000"
 preserveAspectRatio="xMidYMid meet">
<metadata>
Created by potrace 1.14, written by Peter Selinger 2001-2017
</metadata>
<g transform="translate(0.000000,240.000000) scale(0.100000,-0.100000)"
fill="#000000" stroke="none">
<path d="M1172 2378 c-26 -29 -42 -70 -42 -110 0 -27 -2 -29 -16 -17 -14 11
-18 10 -30 -6 -13 -18 -19 -52 -14 -84 1 -13 -1 -13 -15 -1 -25 20 -38 -5 -38
-72 0 -12 -7 -17 -21 -15 -18 2 -22 -4 -24 -36 -2 -29 -7 -37 -17 -33 -17 6
-32 -20 -30 -51 2 -18 -1 -21 -16 -13 -14 8 -19 6 -24 -10 -6 -20 -7 -20 -37
6 -27 22 -32 23 -40 10 -8 -14 -13 -13 -43 10 l-35 26 -9 -23 c-5 -13 -10 -19
-10 -12 -1 6 -17 21 -37 34 -34 21 -38 21 -49 6 -11 -16 -14 -16 -25 -1 -31
36 -96 51 -83 18 8 -20 -7 -17 -33 7 -27 25 -90 48 -114 42 -40 -11 -25 -90
28 -147 15 -16 21 -26 14 -22 -7 4 -19 2 -27 -4 -17 -14 -7 -39 33 -82 23 -25
23 -27 3 -21 -34 9 -20 -42 22 -80 16 -14 17 -17 4 -17 -22 0 -30 -16 -15 -32
45 -48 52 -59 35 -52 -25 9 -22 -28 4 -52 l20 -18 -22 -8 c-17 -7 -19 -11 -9
-23 7 -8 11 -15 9 -16 -2 -1 -16 -2 -30 -3 -35 -4 -49 -14 -42 -31 4 -11 -2
-15 -23 -15 -36 0 -58 -14 -52 -31 4 -10 -5 -14 -34 -16 -49 -2 -67 -16 -48
-38 7 -9 9 -15 4 -14 -27 5 -73 -3 -89 -15 -16 -12 -17 -16 -6 -30 13 -16 5
-18 -54 -16 -13 1 -62 -30 -79 -49 -16 -17 -17 -23 -6 -36 20 -24 63 -44 105
-49 35 -5 62 -16 37 -16 -7 0 -12 -6 -12 -13 0 -18 43 -37 82 -37 25 0 28 -2
19 -14 -15 -18 10 -34 56 -38 23 -2 29 -6 25 -20 -5 -19 34 -34 68 -25 16 4
18 2 10 -13 -12 -23 -4 -30 37 -30 30 0 33 -2 23 -19 -8 -16 -6 -21 12 -27 19
-6 20 -8 7 -18 -9 -6 -21 -21 -28 -33 -10 -19 -9 -23 4 -23 21 0 19 -13 -5
-35 -21 -19 -27 -55 -9 -55 5 0 -2 -16 -17 -35 -24 -32 -28 -75 -4 -60 5 3 10
1 10 -4 0 -6 -4 -11 -8 -11 -12 0 -53 -76 -45 -84 3 -3 15 -6 25 -6 17 0 17
-1 -1 -19 -29 -29 -50 -75 -53 -113 l-3 -33 47 1 c38 0 56 7 88 33 33 26 41
29 38 15 -5 -27 24 -28 63 -1 32 22 37 22 46 8 9 -14 12 -14 35 1 14 9 33 24
42 33 14 15 16 15 16 1 0 -23 27 -19 54 7 21 21 25 22 33 8 9 -14 14 -13 42 7
25 18 31 19 31 7 0 -18 36 -20 44 -2 3 6 4 -1 2 -18 -5 -42 11 -70 30 -54 12
9 14 6 14 -22 0 -42 12 -62 31 -54 11 4 15 -3 16 -30 1 -45 20 -70 40 -53 12
9 14 9 13 -3 -5 -32 1 -66 14 -84 11 -16 17 -17 29 -7 12 10 15 6 19 -33 4
-27 16 -59 32 -80 23 -29 30 -33 46 -25 31 17 57 76 59 134 1 16 4 17 13 8 7
-7 15 -12 19 -12 10 0 29 58 29 88 0 20 3 22 14 13 12 -10 17 -8 26 9 6 12 12
35 12 51 1 23 5 28 18 24 20 -6 32 26 25 64 -3 18 -1 20 9 12 17 -15 36 6 36
40 0 22 4 26 20 22 13 -3 22 1 26 11 6 15 9 15 30 -5 24 -23 62 -20 48 3 -5 7
7 1 25 -14 37 -32 61 -36 61 -10 0 15 3 14 18 -4 34 -43 92 -55 78 -17 -4 8
10 1 29 -16 41 -36 75 -41 75 -11 0 18 5 16 46 -15 34 -26 55 -35 85 -35 39 0
39 0 39 38 0 27 -9 51 -30 80 -34 48 -36 52 -15 52 25 0 17 37 -16 75 -17 19
-24 33 -16 29 8 -3 18 0 22 6 7 12 -29 76 -48 84 -7 2 -4 5 6 5 23 1 21 23 -5
56 -15 20 -18 30 -10 33 18 6 15 23 -10 49 -19 21 -20 23 -4 23 14 0 17 5 12
25 -6 23 -4 25 30 25 31 0 36 3 31 20 -4 15 0 20 16 20 44 0 68 12 62 30 -4
13 1 17 24 18 16 0 39 6 51 12 17 9 19 14 9 26 -9 12 -6 14 19 14 32 0 82 18
82 30 0 3 -5 11 -12 18 -9 9 -8 12 8 12 37 0 91 20 119 45 29 24 29 24 10 45
-25 27 -78 50 -117 50 -26 0 -29 2 -18 15 22 27 -25 52 -85 45 -16 -2 -17 1
-7 13 17 20 -7 39 -52 40 -25 1 -32 5 -28 15 7 19 -16 32 -57 32 -28 0 -31 2
-22 14 10 12 9 17 -6 24 -10 5 -28 8 -41 6 -19 -3 -22 -1 -16 21 5 20 2 25
-12 25 -15 0 -15 3 6 24 22 24 22 56 0 56 -6 0 1 11 15 25 27 28 32 51 13 57
-9 3 -3 16 15 37 31 37 33 47 11 55 -13 5 -11 11 11 40 26 35 30 73 7 69 -18
-4 -14 11 8 35 37 39 56 131 28 133 -49 4 -103 -16 -139 -52 -19 -19 -19 -19
-19 5 0 23 -2 24 -29 15 -15 -6 -38 -19 -49 -30 -24 -22 -33 -24 -30 -6 4 19
-40 10 -65 -13 -12 -12 -23 -16 -25 -10 -6 17 -34 11 -60 -12 -17 -16 -26 -19
-29 -10 -7 19 -30 14 -53 -10 -11 -12 -20 -18 -20 -12 0 5 -4 15 -9 23 -8 12
-12 12 -25 2 -14 -12 -16 -9 -16 21 0 43 -7 50 -33 37 -14 -8 -18 -8 -12 1 4
6 4 27 0 47 -5 27 -10 34 -24 30 -14 -3 -18 3 -20 31 -2 44 -18 67 -36 52 -9
-8 -14 1 -18 36 -6 55 -19 73 -42 54 -13 -11 -15 -9 -15 14 0 46 -46 136 -70
136 -3 0 -16 -10 -28 -22z"/>
</g>
</svg>
